<svg preserveAspectRatio="xMidYMid meet" width="100%" height="100%" overflow="visible" style="display: block;" viewBox="0 0 60 9.375" fill="none" xmlns="http://www.w3.org/2000/svg">
<path id="Premiere" fill-rule="evenodd" clip-rule="evenodd" d="M0.898344 0H59.1014C59.5983 0 60 0.396385 60 0.885456V8.48954C60 8.97923 59.5983 9.375 59.1014 9.375H0.898344C0.402333 9.375 0 8.97923 0 8.48954V0.885456C0 0.396385 0.402333 0 0.898344 0ZM34.8842 7.25432H33.6701V2.12105H34.8842V7.25432ZM46.5866 5.61476L48.2362 7.23906H49.8331L48.1752 5.61476H48.3C49.0381 5.61432 49.636 5.02604 49.6362 4.29803L49.6366 3.45345C49.636 2.72614 49.0389 2.13707 48.3002 2.13646H44.5413C43.8024 2.13707 43.2056 2.72614 43.2047 3.45345V7.23854H44.3282V6.81766L44.3284 5.81432C44.3332 5.70277 44.4261 5.61476 44.5413 5.61432L46.5866 5.61476ZM52.3116 3.20025H56.7214V2.14369H52.2041C51.3163 2.14369 50.8744 2.91699 50.8744 3.46685V5.94719C50.8744 6.58489 51.3746 7.23194 52.2893 7.23194H56.7214V6.13512H52.3078C52.2068 6.13512 52.0956 6.06895 52.0956 5.95626V5.14288L56.7214 5.13821V4.06703L52.0956 4.06227V3.38271C52.0956 3.28404 52.1704 3.20025 52.3116 3.20025ZM41.968 3.20025H37.5581C37.4176 3.20025 37.3427 3.28404 37.3427 3.38271V4.06227L41.968 4.06703V5.13821L37.3427 5.14288V5.95626C37.3427 6.06895 37.4535 6.13512 37.5541 6.13512H41.968V7.23194H37.5363C36.6212 7.23194 36.1213 6.58489 36.1213 5.94719V3.46685C36.1213 2.91699 36.5629 2.14369 37.4508 2.14369H41.968V3.20025ZM32.4335 7.24058H31.2636V3.61065L29.5995 6.62772H28.5893L26.8422 3.59761V7.24058H25.6724V2.14044H27.1035L29.0528 5.48984L31.0403 2.13489H32.4335V7.24058ZM20.0259 3.20025H24.4356V2.14369H19.9181C19.0302 2.14369 18.5888 2.91699 18.5888 3.46685V5.94719C18.5888 6.58489 19.0887 7.23194 20.0036 7.23194H24.4356V6.13512H20.0215C19.9211 6.13512 19.8101 6.06895 19.8101 5.95626V5.14288L24.4356 5.13821V4.06703L19.8101 4.06227V3.38271C19.8101 3.28404 19.8849 3.20025 20.0259 3.20025ZM15.9501 7.23906L14.3004 5.61476L12.2553 5.61432C12.1403 5.61476 12.0473 5.70277 12.0427 5.81432V6.81766L12.0426 7.23854H10.919V3.45345C10.9191 2.72614 11.5163 2.13707 12.2553 2.13646H16.0142C16.753 2.13707 17.3502 2.72614 17.3503 3.45345V4.29803C17.3502 5.02604 16.7519 5.61432 16.0139 5.61476H15.8892L17.5472 7.23906H15.9501ZM8.35147 5.60021C9.0865 5.60021 9.68156 5.01343 9.68182 4.28964L9.68209 3.44912C9.68156 2.72428 9.08677 2.13785 8.35147 2.13785H4.60909C3.8737 2.13785 3.27945 2.72481 3.27864 3.44912V6.79844H3.27918L3.27945 7.23755H4.39679V5.80866C4.39679 5.69369 4.49163 5.60021 4.60909 5.60021H8.35147ZM16.268 4.33062V3.51218C16.268 3.40025 16.172 3.30881 16.0545 3.30881H12.2855C12.1679 3.30881 12.0724 3.40025 12.0722 3.51218V4.54962C12.1414 4.53852 12.2129 4.53331 12.2855 4.53331L16.0545 4.53417C16.1721 4.53331 16.268 4.44247 16.268 4.33062ZM48.5757 3.51218V4.33062C48.5757 4.44247 48.4804 4.53331 48.3625 4.53417L44.5936 4.53331C44.5212 4.53331 44.4497 4.53852 44.3799 4.54962V3.51218C44.3801 3.40025 44.4755 3.30881 44.5936 3.30881H48.3625C48.48 3.30881 48.5757 3.40025 48.5757 3.51218ZM8.46049 3.30881H4.68663C4.5709 3.30881 4.47552 3.39969 4.47552 3.51219V4.54962C4.54468 4.53906 4.6149 4.5334 4.68663 4.5334L8.46049 4.53392C8.57738 4.5334 8.67115 4.44286 8.67133 4.33087V3.51219C8.67115 3.39969 8.57649 3.30881 8.46049 3.30881Z" fill="var(--fill-0, white)"/>
</svg>
