<svg preserveAspectRatio="none" overflow="visible" style="display: block;" width="112" height="112" viewBox="0 0 112 112" fill="none" xmlns="http://www.w3.org/2000/svg">
<path id="Playkit logo" fill-rule="evenodd" clip-rule="evenodd" d="M0 13.4974C0 6.04301 6.04301 0 13.4974 0H98.5026C105.957 0 112 6.04301 112 13.4974V98.5026C112 105.957 105.957 112 98.5026 112H13.4974C6.04301 112 0 105.957 0 98.5026V62C0 61.5266 0.383755 61.1429 0.857142 61.1429H3.16337C3.63676 61.1429 4.02051 61.5266 4.02051 62V98.5026C4.02051 103.737 8.26348 107.979 13.4974 107.979H98.5026C103.737 107.979 107.979 103.737 107.979 98.5026V13.4974C107.979 8.26348 103.737 4.02051 98.5026 4.02051H13.4974C8.26348 4.02051 4.02051 8.26348 4.02051 13.4974V29.4286C4.02051 29.902 3.63676 30.2857 3.16337 30.2857H0.857143C0.383756 30.2857 0 29.902 0 29.4286V13.4974ZM17.645 50.2526C17.8217 50.4514 18.0537 50.5509 18.341 50.5509C18.5177 50.5509 18.7497 50.4956 19.037 50.3851L20.2964 49.8217C20.6941 49.6449 20.9813 49.4129 21.1581 49.1257C21.357 48.8385 21.4564 48.4849 21.4564 48.0651V30.7977C21.4564 30.3779 21.357 30.0244 21.1581 29.7371C20.9813 29.4499 20.6941 29.2179 20.2964 29.0411L19.037 28.4777C18.7497 28.3672 18.5177 28.312 18.341 28.312C18.0537 28.312 17.8217 28.4225 17.645 28.6434C17.4903 28.8423 17.413 29.1406 17.413 29.5383V49.3246C17.413 49.7223 17.4903 50.0316 17.645 50.2526ZM74.4143 50.0869C74.569 50.2194 74.7678 50.2857 75.0109 50.2857H77.4634C77.7065 50.2857 77.8943 50.2194 78.0269 50.0869C78.1815 49.9322 78.2589 49.7333 78.2589 49.4903V35.7029C78.2589 35.4598 78.1815 35.272 78.0269 35.1394C77.8943 34.9848 77.7065 34.9074 77.4634 34.9074H75.0109C74.7678 34.9074 74.569 34.9848 74.4143 35.1394C74.2817 35.272 74.2154 35.4598 74.2154 35.7029V49.4903C74.2154 49.7333 74.2817 49.9322 74.4143 50.0869ZM74.4474 32.6206C74.9556 33.0846 75.5522 33.3166 76.2372 33.3166C76.9221 33.3166 77.5187 33.0846 78.0269 32.6206C78.5351 32.1566 78.7892 31.56 78.7892 30.8309C78.7892 30.0796 78.5351 29.472 78.0269 29.008C77.5187 28.544 76.9221 28.312 76.2372 28.312C75.5522 28.312 74.9556 28.544 74.4474 29.008C73.9392 29.472 73.6851 30.0686 73.6851 30.7977C73.6851 31.5489 73.9392 32.1566 74.4474 32.6206ZM84.3105 49.0594C85.1722 50.0537 86.3764 50.5508 87.9231 50.5508C89.2709 50.5508 90.4861 50.1973 91.5688 49.4903C91.8119 49.3356 91.9334 49.1368 91.9334 48.8937C91.9334 48.739 91.9002 48.5844 91.834 48.4297L91.0717 46.8057C90.9391 46.4964 90.7292 46.3417 90.442 46.3417C90.3094 46.3417 90.1658 46.3748 90.0111 46.4411C89.6134 46.64 89.1936 46.7394 88.7517 46.7394C88.1993 46.7394 87.7795 46.5737 87.4922 46.2423C87.205 45.8888 87.0614 45.4027 87.0614 44.784V38.4868H90.3425C90.5856 38.4868 90.7734 38.4206 90.906 38.288C91.0606 38.1333 91.138 37.9345 91.138 37.6914V35.7028C91.138 35.4598 91.0606 35.272 90.906 35.1394C90.7734 34.9848 90.5856 34.9074 90.3425 34.9074H87.0614V31.1291C87.0614 30.8861 86.984 30.6983 86.8294 30.5657C86.6968 30.411 86.509 30.3337 86.266 30.3337H83.8134C83.5703 30.3337 83.3715 30.411 83.2168 30.5657C83.0842 30.6983 83.018 30.8861 83.018 31.1291V34.9074H80.8637C80.6206 34.9074 80.4218 34.9848 80.2671 35.1394C80.1345 35.272 80.0682 35.4598 80.0682 35.7028V37.6914C80.0682 37.9345 80.1345 38.1333 80.2671 38.288C80.4218 38.4206 80.6206 38.4868 80.8637 38.4868H83.018V44.9166C83.018 46.6842 83.4488 48.0651 84.3105 49.0594ZM58.4071 50.2857C58.164 50.2857 57.9652 50.2194 57.8105 50.0868C57.6779 49.9322 57.6116 49.7333 57.6116 49.4903V29.3726C57.6116 29.1295 57.6779 28.9417 57.8105 28.8091C57.9652 28.6545 58.164 28.5771 58.4071 28.5771H60.8596C61.1027 28.5771 61.2905 28.6545 61.4231 28.8091C61.5777 28.9417 61.6551 29.1295 61.6551 29.3726V40.4091L67.0242 35.4046C67.3556 35.0731 67.7644 34.9074 68.2505 34.9074H71.4985C71.6973 34.9074 71.852 34.9516 71.9625 35.04C72.0951 35.1063 72.1613 35.2057 72.1613 35.3383C72.1613 35.515 72.0509 35.7028 71.8299 35.9017L66.2288 41.0057L72.6585 49.3246C72.7911 49.5234 72.8573 49.6891 72.8573 49.8217C72.8573 49.9543 72.7911 50.0648 72.6585 50.1531C72.548 50.2415 72.3933 50.2857 72.1945 50.2857H68.9133C68.5156 50.2857 68.1953 50.131 67.9522 49.8217L63.2459 43.5908L61.6551 44.9828V49.4903C61.6551 49.7333 61.5777 49.9322 61.4231 50.0868C61.2905 50.2194 61.1027 50.2857 60.8596 50.2857H58.4071ZM40.6534 55.8206C41.5814 56.5497 42.6088 56.9143 43.7357 56.9143C45.1498 56.9143 46.3319 56.4061 47.282 55.3897C48.2541 54.3733 49.1601 52.8046 49.9997 50.6834L55.866 35.8354C55.9322 35.6587 55.9654 35.5261 55.9654 35.4377C55.9654 35.0842 55.7444 34.9074 55.3025 34.9074H52.4191C51.933 34.9074 51.6237 35.1173 51.4911 35.5371L48.3757 44.5851L44.7962 35.5371C44.6416 35.1173 44.3433 34.9074 43.9014 34.9074H40.8854C40.6644 34.9074 40.4987 34.9516 40.3882 35.04C40.2778 35.1284 40.2225 35.2499 40.2225 35.4046C40.2225 35.515 40.2557 35.6587 40.322 35.8354L46.4865 49.7554L45.9894 50.816C45.2823 52.3406 44.52 53.1028 43.7025 53.1028C43.3048 53.1028 42.8629 52.9924 42.3768 52.7714C42.2221 52.683 42.0675 52.6388 41.9128 52.6388C41.6256 52.6388 41.4157 52.7825 41.2831 53.0697L40.4214 54.7268C40.333 54.9478 40.2888 55.1025 40.2888 55.1908C40.2888 55.4118 40.4103 55.6217 40.6534 55.8206ZM30.6235 50.5509C29.3199 50.5509 28.1046 50.2084 26.9778 49.5234C25.8509 48.8164 24.956 47.8552 24.2932 46.64C23.6303 45.4027 23.2989 44.0549 23.2989 42.5966C23.2989 41.1162 23.6303 39.7684 24.2932 38.5531C24.956 37.3379 25.8509 36.3878 26.9778 35.7029C28.1046 34.9958 29.3309 34.6423 30.6566 34.6423C31.4962 34.6423 32.3138 34.8301 33.1092 35.2057C33.9046 35.5813 34.5454 36.0674 35.0315 36.664V35.7029C35.0315 35.4598 35.0978 35.272 35.2303 35.1394C35.385 34.9848 35.5839 34.9074 35.8269 34.9074H38.0475C38.2905 34.9074 38.4783 34.9848 38.6109 35.1394C38.7656 35.272 38.8429 35.4598 38.8429 35.7029V49.4903C38.8429 49.7333 38.7656 49.9322 38.6109 50.0869C38.4783 50.2194 38.2905 50.2857 38.0475 50.2857H35.8269C35.5839 50.2857 35.385 50.2194 35.2303 50.0869C35.0978 49.9322 35.0315 49.7333 35.0315 49.4903V48.5954C34.5233 49.192 33.8825 49.667 33.1092 50.0206C32.358 50.3741 31.5294 50.5509 30.6235 50.5509ZM31.0875 46.6731C32.1481 46.6731 33.0429 46.2975 33.7721 45.5463C34.5012 44.773 34.8658 43.7897 34.8658 42.5966C34.8658 41.4034 34.5012 40.4312 33.7721 39.68C33.0429 38.9067 32.1481 38.52 31.0875 38.52C30.0269 38.52 29.132 38.9067 28.4029 39.68C27.6738 40.4312 27.3092 41.4034 27.3092 42.5966C27.3092 43.7897 27.6738 44.773 28.4029 45.5463C29.132 46.2975 30.0269 46.6731 31.0875 46.6731ZM0.795429 56.6491C0.552381 56.6491 0.353524 56.5718 0.198857 56.4171C0.0662856 56.2846 0 56.0968 0 55.8537V35.7029C0 35.4598 0.0662856 35.272 0.198857 35.1394C0.353524 34.9848 0.552381 34.9074 0.795429 34.9074H3.016C3.25905 34.9074 3.44686 34.9848 3.57943 35.1394C3.7341 35.272 3.81143 35.4598 3.81143 35.7029V36.5977C4.31962 36.0011 4.94933 35.5261 5.70057 35.1726C6.47391 34.819 7.31353 34.6423 8.21943 34.6423C9.52305 34.6423 10.7383 34.9958 11.8651 35.7029C12.992 36.3878 13.8869 37.3489 14.5497 38.5863C15.2126 39.8015 15.544 41.1383 15.544 42.5966C15.544 44.0769 15.2126 45.4248 14.5497 46.64C13.8869 47.8552 12.992 48.8164 11.8651 49.5234C10.7383 50.2084 9.512 50.5509 8.18629 50.5509C7.41296 50.5509 6.65067 50.3851 5.89943 50.0537C5.17029 49.7223 4.55162 49.3025 4.04343 48.7943V55.8537C4.04343 56.0968 3.9661 56.2846 3.81143 56.4171C3.67886 56.5718 3.49105 56.6491 3.248 56.6491H0.795429ZM7.75543 46.6731C8.816 46.6731 9.71086 46.2975 10.44 45.5463C11.1691 44.773 11.5337 43.7897 11.5337 42.5966C11.5337 41.4034 11.1691 40.4312 10.44 39.68C9.71086 38.9067 8.816 38.52 7.75543 38.52C6.69486 38.52 5.8 38.9067 5.07086 39.68C4.34172 40.4312 3.97714 41.4034 3.97714 42.5966C3.97714 43.7897 4.34172 44.773 5.07086 45.5463C5.8 46.2975 6.69486 46.6731 7.75543 46.6731Z" fill="var(--fill-0, white)"/>
</svg>
