<svg preserveAspectRatio="none" overflow="visible" style="display: block;" width="141.376" height="38.3834" viewBox="0 0 141.376 38.3834" fill="none" xmlns="http://www.w3.org/2000/svg">
<g id="Group 39">
<g id="Copa do Brasil">
<path d="M141.376 35.8244H0V38.3833H141.376V35.8244Z" fill="white"/>
<path d="M141.376 0H0V2.55899H141.376V0Z" fill="white"/>
<path d="M0 11.1571C0 7.9144 2.17132 5.8489 5.48333 5.8489C9.29278 5.8489 11.0739 8.12896 11.0739 12.9036C11.0739 14.8275 10.9667 16.6084 10.8251 17.963H6.97995C7.08716 15.7187 7.08716 13.3313 7.08716 11.4432C7.08716 9.91124 6.65976 9.16314 5.55623 9.16314C4.4527 9.16314 3.95383 9.87548 3.95383 11.1585V27.2277C3.95383 28.475 4.41697 29.1873 5.55623 29.1873C6.69549 29.1873 7.08716 28.4392 7.08716 26.943C7.08716 25.0191 7.08716 22.6318 6.97995 20.4232H10.8251C10.9681 21.7421 11.0739 23.5229 11.0739 25.4468C11.0739 30.2572 9.29421 32.5015 5.48333 32.5015C2.17275 32.5015 0 30.4704 0 27.2291V11.1571Z" fill="white"/>
<path d="M13.8327 27.262V11.1585C13.8327 7.91583 16.0397 5.85034 19.4232 5.85034C22.8067 5.85034 25.0138 7.91726 25.0138 11.1585V27.262C25.0138 30.4689 22.8067 32.5344 19.4232 32.5344C16.0397 32.5344 13.8327 30.4675 13.8327 27.262ZM20.9899 27.262V11.1585C20.9899 9.87548 20.5267 9.16314 19.4232 9.16314C18.3197 9.16314 17.8566 9.87548 17.8566 11.1585V27.262C17.8566 28.5093 18.3197 29.2216 19.4232 29.2216C20.5267 29.2216 20.9899 28.5093 20.9899 27.262Z" fill="white"/>
<path d="M38.8236 19.0987C38.8236 22.5274 36.8652 24.3125 32.6641 24.3125H31.9522V32.1697H27.9998V6.41963C29.2106 6.13355 30.813 5.99051 32.6641 5.99051C36.8652 5.99051 38.8236 7.73989 38.8236 11.1686V19.0987ZM34.8712 11.17C34.8712 9.88406 34.3008 9.20605 33.1973 9.20605C32.7342 9.20605 32.271 9.27757 31.9508 9.34909V20.9196C32.271 20.9911 32.7342 21.0626 33.1973 21.0626C34.3008 21.0626 34.8712 20.3846 34.8712 19.0987V11.17Z" fill="white"/>
<path d="M48.1649 27.0861H44.7829L44.284 32.1697H40.1544L43.8566 6.21509H49.0898L52.792 32.1697H48.6624L48.1635 27.0861H48.1649ZM47.809 23.6846L46.6697 12.0497L46.5983 11.0827H46.3496L46.3138 12.0497L45.1388 23.6846H47.809Z" fill="white"/>
<path d="M59.9335 8.6625V17.0818C59.9335 18.8069 58.8286 19.8382 56.7473 19.8382C55.9039 19.8382 54.8361 19.7438 54.1986 19.6136V6.14929C54.8361 6.01769 55.9039 5.92472 56.7473 5.92472C58.8271 5.92472 59.9335 6.95603 59.9335 8.6625ZM57.8351 8.6625C57.8351 7.98735 57.5163 7.63118 56.936 7.63118C56.693 7.63118 56.4485 7.66837 56.2799 7.70556V18.0574C56.4671 18.0946 56.6915 18.1132 56.936 18.1132C57.5163 18.1132 57.8351 17.757 57.8351 17.0818V8.6625Z" fill="white"/>
<path d="M61.4459 17.119V8.64248C61.4459 6.93601 62.608 5.8489 64.3876 5.8489C66.1673 5.8489 67.3294 6.93601 67.3294 8.64248V17.119C67.3294 18.8069 66.1673 19.894 64.3876 19.894C62.608 19.894 61.4459 18.8069 61.4459 17.119ZM65.2124 17.119V8.64248C65.2124 7.96733 64.9694 7.59256 64.3876 7.59256C63.8059 7.59256 63.5629 7.96733 63.5629 8.64248V17.119C63.5629 17.7756 63.8059 18.1503 64.3876 18.1503C64.9694 18.1503 65.2124 17.7756 65.2124 17.119Z" fill="white"/>
<path d="M81.2079 22.4158V27.0474C81.2079 30.6463 79.4282 32.4272 75.3686 32.4272C73.5175 32.4272 71.8793 32.2841 70.3484 31.9995V6.41963C71.8436 6.09923 73.4103 5.99194 75.1899 5.99194C79.3196 5.99194 81.1364 7.66694 81.1364 11.1585V15.3267C81.1364 16.7514 80.4603 17.8914 79.3567 18.6052C80.5317 19.4248 81.2079 20.7422 81.2079 22.4172V22.4158ZM74.3008 9.37627V17.2864H75.796C76.758 17.2864 77.2197 16.574 77.2197 15.3267V11.1585C77.2197 9.87548 76.6494 9.23466 75.5101 9.23466C75.047 9.23466 74.5838 9.30618 74.2994 9.3777L74.3008 9.37627ZM77.2912 22.4158C77.2912 21.1327 76.8281 20.4561 75.7245 20.4561H74.3008V29.0428C74.621 29.1144 75.0841 29.1501 75.5473 29.1501C76.6865 29.1501 77.2926 28.4378 77.2926 27.0474V22.4158H77.2912Z" fill="white"/>
<path d="M95.4465 32.1697H91.5298L90.7465 24.6701C90.6036 23.563 90.1061 22.9207 89.2156 22.8134H88.0406V32.1697H84.0882V6.41963C85.5119 6.09779 87.0071 5.99051 88.681 5.99051C93.0608 5.99051 94.9119 7.66837 94.9119 11.1686V17.418C94.9119 19.0257 94.2715 20.5606 93.0965 21.4889C93.8084 21.918 94.2715 22.6318 94.3787 23.5601L95.4465 32.1668V32.1697ZM89.3213 19.3833C90.3534 19.3833 90.9595 18.7053 90.9595 17.4194V11.17C90.9595 9.88406 90.3891 9.20605 89.2856 9.20605C88.8225 9.20605 88.3593 9.27757 88.0391 9.34909V19.3848H89.3213V19.3833Z" fill="white"/>
<path d="M105.624 27.0861H102.242L101.743 32.1697H97.6135L101.316 6.21509H106.549L110.251 32.1697H106.122L105.623 27.0861H105.624ZM105.268 23.6846L104.129 12.0497L104.057 11.0827H103.809L103.773 12.0497L102.598 23.6846H105.268Z" fill="white"/>
<path d="M112.201 27.3335C112.201 26.122 112.308 25.0535 112.521 23.9492H116.331C116.188 24.9819 116.152 26.1577 116.152 27.3335C116.152 28.5093 116.579 29.2216 117.611 29.2216C118.643 29.2216 119.035 28.5451 119.035 27.3335V25.9088C119.035 20.4933 112.27 19.4248 112.27 12.2986V11.0513C112.27 7.88007 114.371 5.8489 117.574 5.8489C120.778 5.8489 122.807 7.88007 122.807 11.0513C122.807 12.1555 122.736 13.1182 122.559 14.0437H118.785C118.892 13.1168 118.892 12.084 118.892 11.0513C118.892 9.83972 118.5 9.16314 117.574 9.16314C116.648 9.16314 116.221 9.83972 116.221 11.0513V12.2986C116.221 17.7141 122.986 18.6052 122.986 25.9088V27.3335C122.986 30.5047 120.885 32.5359 117.61 32.5359C114.335 32.5359 112.198 30.5047 112.198 27.3335H112.201Z" fill="white"/>
<path d="M125.741 6.21509H129.693V32.1697H125.741V6.21509Z" fill="white"/>
<path d="M141.376 28.7324V32.1697H132.902V6.21509H136.854V28.7324H141.376Z" fill="white"/>
<path d="M61.4459 21.7879L62.8953 25.71L66.8148 27.1619L62.8953 28.6123L61.4459 32.5344L59.995 28.6123L56.0755 27.1619L59.995 25.71L61.4459 21.7879Z" fill="#ECE9E4"/>
</g>
</g>
</svg>
